<mxfile host="app.diagrams.net" modified="2023-08-14T10:59:18.684Z" agent="Mozilla/5.0 (Windows NT 10.0; Win64; x64) AppleWebKit/537.36 (KHTML, like Gecko) Chrome/115.0.0.0 Safari/537.36" etag="HH_P3yWT-WoBMai76gFd" version="21.6.8" type="google">
  <diagram name="Página-1" id="zGfa1YD_pheuhkIMPMZq">
    <mxGraphModel dx="1434" dy="782" grid="1" gridSize="10" guides="1" tooltips="1" connect="1" arrows="1" fold="1" page="1" pageScale="1" pageWidth="827" pageHeight="1169" math="0" shadow="0">
      <root>
        <mxCell id="0" />
        <mxCell id="1" parent="0" />
        <mxCell id="uZTbEkK_hjPxRnFsnANw-1" value="" style="whiteSpace=wrap;html=1;aspect=fixed;" vertex="1" parent="1">
          <mxGeometry x="100" y="90" width="650" height="650" as="geometry" />
        </mxCell>
        <mxCell id="uZTbEkK_hjPxRnFsnANw-3" value="Logo" style="rounded=0;whiteSpace=wrap;html=1;" vertex="1" parent="1">
          <mxGeometry x="130" y="110" width="590" height="80" as="geometry" />
        </mxCell>
        <mxCell id="uZTbEkK_hjPxRnFsnANw-4" value="Menu" style="rounded=0;whiteSpace=wrap;html=1;rotation=-90;" vertex="1" parent="1">
          <mxGeometry x="-58.75" y="408.75" width="460" height="82.5" as="geometry" />
        </mxCell>
        <mxCell id="uZTbEkK_hjPxRnFsnANw-8" value="conteúdo" style="text;html=1;strokeColor=none;fillColor=none;align=center;verticalAlign=middle;whiteSpace=wrap;rounded=0;" vertex="1" parent="1">
          <mxGeometry x="401.25" y="390" width="60" height="30" as="geometry" />
        </mxCell>
      </root>
    </mxGraphModel>
  </diagram>
</mxfile>
